<?xml version="1.0" encoding="UTF-8"?>
<svg width="700pt" height="700pt" version="1.1" viewBox="0 0 700 700" xmlns="http://www.w3.org/2000/svg" xmlns:xlink="http://www.w3.org/1999/xlink">
 <g>
  <path d="m350.01 301.26c33.047 0 62.969 13.406 84.605 35.047 21.656 21.656 35.047 51.578 35.047 84.605 0 33.047-13.406 62.969-35.047 84.621-21.656 21.656-51.578 35.047-84.605 35.047-33.047 0-62.969-13.406-84.621-35.047-21.656-21.656-35.047-51.578-35.047-84.621 0-33.047 13.406-62.969 35.047-84.605 21.656-21.656 51.578-35.047 84.621-35.047zm-41.379 128.05c-4.6367 0-8.3984-3.7617-8.3984-8.3984 0-4.6367 3.7617-8.3984 8.3984-8.3984h82.758c4.6367 0 8.3984 3.7617 8.3984 8.3984 0 4.6367-3.7617 8.3984-8.3984 8.3984zm33.531-237.66-88.016-152.43-66.73 38.523 105.59 182.9h9.5078l39.633-69zm-77.699-168.07 87.344 151.27 83.75-145.82c2.3203-4 7.4414-5.3594 11.441-3.0391l81.23 46.891c3.9805 2.3203 5.3438 7.4258 3.0391 11.426l-108.68 188.23c-1.3281 2.9062-4.25 4.9219-7.6445 4.9219h-126.74c-2.8906-0.050782-5.7109-1.5469-7.2422-4.2344l-112.23-194.34c-2.3203-4-0.95703-9.1406 3.0391-11.441l81.23-46.891c4-2.3203 9.1406-0.95703 11.441 3.0391zm57.34 237.07h88.336l102.45-177.46-66.73-38.523-124.07 215.98zm28.207 75.215c23.453 0 44.707 9.5273 60.094 24.898 15.406 15.422 24.93 36.676 24.93 60.129s-9.5273 44.707-24.898 60.094c-15.422 15.406-36.676 24.93-60.129 24.93-23.469 0-44.738-9.5273-60.129-24.898l-0.45312-0.50391c-15.121-15.355-24.445-36.406-24.445-59.625 0-23.453 9.5273-44.707 24.898-60.094 15.371-15.406 36.656-24.93 60.129-24.93zm48.25 36.777c-12.332-12.332-29.398-19.977-48.25-19.977-18.832 0-35.902 7.6445-48.25 19.977-12.348 12.316-19.977 29.398-19.977 48.25 0 18.648 7.4766 35.551 19.57 47.848l0.42188 0.38672c12.348 12.348 29.398 19.977 48.25 19.977 18.852 0 35.918-7.6445 48.25-19.977 12.332-12.332 19.977-29.398 19.977-48.25 0-18.852-7.6445-35.938-19.977-48.266zm24.477-24.477c-18.598-18.598-44.336-30.121-72.727-30.121-28.41 0-54.129 11.523-72.746 30.121-18.598 18.598-30.121 44.336-30.121 72.727 0 28.41 11.523 54.129 30.121 72.746 18.598 18.598 44.336 30.121 72.746 30.121 28.41 0 54.129-11.523 72.727-30.121s30.121-44.336 30.121-72.746c0-28.41-11.523-54.129-30.121-72.727z"/>
 </g>
</svg>
